<?xml version="1.0" encoding="UTF-8" standalone="no"?>
<!-- Generator: Adobe Illustrator 12.0.0, SVG Export Plug-In . SVG Version: 6.00 Build 51448)  -->

<svg
   version="1.1"
   id="Layer_1"
   width="2.6788533mm"
   height="5.2846112mm"
   viewBox="-0.625 -7.083 9.4919996 18.725"
   overflow="visible"
   enable-background="new -0.625 -7.083 10.359 19.785"
   xml:space="preserve"
   inkscape:version="1.2 (dc2aedaf03, 2022-05-15)"
   sodipodi:docname="Jumper Shunt_bb.svg"
   style="overflow:visible"
   xmlns:inkscape="http://www.inkscape.org/namespaces/inkscape"
   xmlns:sodipodi="http://sodipodi.sourceforge.net/DTD/sodipodi-0.dtd"
   xmlns="http://www.w3.org/2000/svg"
   xmlns:svg="http://www.w3.org/2000/svg"
   xmlns:rdf="http://www.w3.org/1999/02/22-rdf-syntax-ns#"
   xmlns:cc="http://creativecommons.org/ns#"
   xmlns:dc="http://purl.org/dc/elements/1.1/"><metadata
     id="metadata3437"><rdf:RDF><cc:Work
         rdf:about=""><dc:format>image/svg+xml</dc:format><dc:type
           rdf:resource="http://purl.org/dc/dcmitype/StillImage" /><dc:title /></cc:Work></rdf:RDF></metadata><defs
     id="defs3435" /><sodipodi:namedview
     pagecolor="#ffffff"
     bordercolor="#666666"
     borderopacity="1"
     objecttolerance="10"
     gridtolerance="10"
     guidetolerance="10"
     inkscape:pageopacity="0"
     inkscape:pageshadow="2"
     inkscape:window-width="1920"
     inkscape:window-height="1121"
     id="namedview3433"
     showgrid="true"
     inkscape:document-units="in"
     units="mm"
     fit-margin-top="0"
     fit-margin-left="0"
     fit-margin-right="0"
     fit-margin-bottom="0"
     inkscape:zoom="33.738125"
     inkscape:cx="-2.0599841"
     inkscape:cy="11.337322"
     inkscape:window-x="-9"
     inkscape:window-y="-9"
     inkscape:window-maximized="1"
     inkscape:current-layer="connector1terminal"
     inkscape:showpageshadow="2"
     inkscape:pagecheckerboard="0"
     inkscape:deskcolor="#d1d1d1"><inkscape:grid
       type="xygrid"
       id="grid3439"
       originx="-4.2132874"
       originy="-4.153092"
       units="in"
       visible="true"
       spacingx="9"
       spacingy="8.9999998" /></sodipodi:namedview><g
     id="g3400"
     transform="translate(-0.449,-0.52300018)"><g
       id="breadboard"><polygon
         points="9.191,-5.397 8.051,-6.435 0.963,-6.435 -0.051,-5.43 -0.051,1.771 0.132,2.797 -0.051,3.823 -0.051,10.983 0.993,12.04 8.243,12.04 9.191,11.139 9.191,3.845 9.025,2.739 9.191,1.709 "
         id="polygon3403"
         style="fill:#404040;stroke:#000000;stroke-width:0.25" /><polygon
         points="7.853,-4.456 7.277,-5.112 1.977,-5.112 1.281,-4.405 1.281,1.668 1.117,2.833 1.281,4.011 1.281,10.041 2.044,10.666 7.277,10.666 7.853,10.102 7.853,3.99 8.023,2.766 7.853,1.579 "
         id="polygon3405"
         style="fill:#898686;stroke:#020202;stroke-width:0.25" /><g
         id="connector1terminal"><rect
           x="1.8660001"
           y="4.4889998"
           width="5.4419999"
           height="5.441"
           id="rect3409"
           style="overflow:visible;fill:#303030;stroke:#020202;stroke-width:0.25" /><polygon
           points="5.925,8.542 7.188,9.805 1.997,9.805 3.259,8.542 "
           id="polygon3417"
           style="overflow:visible;fill:#9a916c" /><polygon
           points="7.188,4.612 7.188,9.805 5.925,8.542 5.925,5.875 "
           id="polygon3415"
           style="overflow:visible;fill:#5e5b43" /><polygon
           points="1.997,4.612 7.188,4.612 5.925,5.875 3.259,5.875 "
           id="polygon3413"
           style="overflow:visible;fill:#80795b" /><polygon
           points="3.259,5.875 1.997,4.612 1.997,9.805 3.259,8.542 "
           id="polygon3411"
           style="overflow:visible;fill:#b8af82" /><rect
           id="connector1"
           x="2.9300001"
           y="5.4759998"
           width="3.424"
           height="3.425"
           style="overflow:visible;fill:none"
           inkscape:label="connector1" /></g><g
         id="connector0terminal"><rect
           x="1.839"
           y="-4.4029999"
           width="5.4949999"
           height="5.5009999"
           id="rect3421"
           style="overflow:visible;fill:#303030;stroke:#020202;stroke-width:0.25" /><polygon
           points="5.936,-0.292 7.209,0.981 1.977,0.981 3.248,-0.292 "
           id="polygon3429"
           style="overflow:visible;fill:#9a916c" /><polygon
           points="1.977,-4.251 7.209,-4.251 5.936,-2.981 3.248,-2.981 "
           id="polygon3425"
           style="overflow:visible;fill:#80795b" /><polygon
           points="3.248,-2.981 1.977,-4.251 1.977,0.981 3.248,-0.292 "
           id="polygon3423"
           style="overflow:visible;fill:#b8af82" /><polygon
           points="7.209,-4.251 7.209,0.981 5.936,-0.292 5.936,-2.981 "
           id="polygon3427"
           style="overflow:visible;fill:#5e5b43" /><rect
           id="connector0"
           x="2.9300001"
           y="-3.3570001"
           width="3.424"
           height="3.424"
           style="overflow:visible;fill:none"
           inkscape:label="connector0" /></g><rect
         x="2.869"
         y="-3.388"
         width="3.4979999"
         height="12.407"
         id="rect3431"
         style="fill:#80795b;stroke:#000000;stroke-width:0.25" /></g></g></svg>
